<?xml version="1.0" encoding="utf-8"?>
<!-- Generator: Adobe Illustrator 21.0.0, SVG Export Plug-In . SVG Version: 6.00 Build 0)  -->
<svg version="1.1" id="Layer_1" xmlns="http://www.w3.org/2000/svg" xmlns:xlink="http://www.w3.org/1999/xlink" x="0px" y="0px"
	 viewBox="0 0 446.5 200.2" style="enable-background:new 0 0 446.5 200.2;" xml:space="preserve">
<style type="text/css">
	.st0{fill:#FFFFFF;}
</style>
<title>logo</title>
<g id="Layer_2">
	<g id="Graphics">
		<path class="st0" d="M77.2,188.7l1.1-7l2.7,0.7l0.5,5.1c1,2,3,3.3,5.2,3.5c1,0.1,2,0,2.9-0.2c1-0.3,1.9-0.8,2.6-1.6
			c0.8-0.8,1.3-1.9,1.4-3.1c0.1-0.9-0.1-1.8-0.6-2.6c-0.5-0.9-1.2-1.7-1.9-2.3c-0.8-0.7-1.8-1.4-2.8-2.1s-2-1.4-3.1-2.2
			c-1-0.7-1.9-1.5-2.7-2.4c-0.8-0.9-1.5-1.9-1.9-3c-0.4-1.2-0.6-2.5-0.4-3.7c0.2-1.8,0.9-3.5,2.1-4.9c1.1-1.3,2.6-2.3,4.2-2.8
			c1.6-0.5,3.4-0.7,5.1-0.5c2.7,0.3,5.3,1.5,7.2,3.5l-1.4,7.4l-2.6-0.6l-0.1-5.1c-0.3-0.8-0.9-1.5-1.6-2c-0.8-0.6-1.7-1-2.7-1.1
			c-1.3-0.2-2.6,0.1-3.6,0.9c-1,0.9-1.7,2.2-1.7,3.6c-0.1,1,0.1,2,0.5,2.9c0.5,0.9,1.2,1.8,2,2.4c0.9,0.8,1.8,1.5,2.8,2.1
			c1,0.7,2.1,1.4,3.1,2.2c1,0.7,1.9,1.5,2.8,2.4c0.8,0.9,1.5,1.9,1.9,3c0.5,1.2,0.6,2.5,0.4,3.8c-0.2,1.9-1,3.7-2.3,5.1
			c-1.3,1.4-2.9,2.5-4.8,3.1c-1.9,0.6-3.9,0.8-5.9,0.6c-1.8-0.2-3.5-0.8-5-1.7C79.3,191.1,78.1,190,77.2,188.7z"/>
		<path class="st0" d="M98.1,194.3l0.5-2.1l4.2-0.6l2.4-26.6l-4.1-1.8l0.5-2l7.7,0.1l0.6,0.7l-0.9,10.5l-0.7,2.8h0.3
			c2.7-2.5,5.5-3.7,8.2-3.4c0.9,0.1,1.7,0.3,2.5,0.6c1.7,0.7,2.8,2.2,3.1,4c0.2,1.3,0.3,2.7,0.1,4l-1.2,12.9l3.8,1.3l-0.5,2.1
			l-11.9-1.1l0.5-1.9l3.7-0.7l1.2-12.4c0.3-1.4-0.1-2.8-1-3.9c-0.8-0.8-1.9-1.4-3.1-1.4c-2-0.1-3.9,0.5-5.3,1.9l-1.3,14.9l3.8,1.3
			l-0.5,2.1L98.1,194.3z"/>
		<path class="st0" d="M126.5,192.3c0.1-1,0.4-2,0.9-2.8c0.6-0.9,1.4-1.8,2.3-2.4c1.2-0.8,2.6-1.4,4-1.7c1.8-0.4,3.7-0.7,5.6-0.6
			l0.1-1.5c0.1-0.9,0.1-1.8,0-2.6c-0.1-0.8-0.3-1.6-0.6-2.3c-0.3-0.7-0.8-1.3-1.4-1.7c-0.7-0.5-1.4-0.7-2.2-0.7
			c-0.4,0-0.8,0-1.2,0.1c-0.3,0.1-0.6,0.2-0.8,0.5c-0.2,0.3-0.4,0.6-0.5,1c-0.2,0.5-0.3,1-0.4,1.5c-0.1,0.6-0.2,1.3-0.4,2.1
			c0,0.2,0,0.3-0.1,0.4c-0.4,0-0.7-0.1-0.9-0.1c-0.3-0.1-0.6-0.1-0.9-0.2c-0.3-0.1-0.6-0.3-0.9-0.5c-0.2-0.2-0.4-0.5-0.6-0.9
			c-0.2-0.4-0.2-0.9-0.2-1.3c0.2-1.1,0.8-2,1.7-2.6c1.1-0.8,2.4-1.4,3.8-1.8c1.3-0.4,2.6-0.5,4-0.5c2.3,0.2,4,0.9,4.9,2.3
			c0.9,1.4,1.3,3.5,1.1,6.3l-0.6,9.7c-0.1,0.9,0,1.8,0.4,2.6c0.6,0.6,1.4,1.1,2.3,1.2l1.3,0.3l-0.5,2.3l-1.5,0.2
			c-0.7,0.1-1.5,0.1-2.2,0.1c-1.1,0-2.2-0.5-3-1.3c-0.6-0.7-0.9-1.6-0.9-2.6v-0.4H139c-0.3,0.4-0.6,0.8-0.9,1.2
			c-0.5,0.5-1,0.9-1.5,1.2c-0.7,0.5-1.5,0.8-2.3,1c-0.9,0.2-1.9,0.3-2.9,0.2c-1.4-0.1-2.7-0.6-3.6-1.6
			C126.8,195.1,126.4,193.7,126.5,192.3z M131.3,191.3c0,0.8,0.2,1.5,0.7,2.2c0.5,0.7,1.3,1.1,2.1,1.1c0.9,0,1.8-0.2,2.6-0.6
			c0.8-0.4,1.5-0.9,2.2-1.5l0.4-6.4c-2.1,0.2-4.2,0.8-6,1.8C132.1,188.7,131.4,190,131.3,191.3L131.3,191.3z"/>
		<path class="st0" d="M147.7,176.9l0.4-2l11.1,0.4l-0.3,2l-3.6,0.9l2.5,10.8l0.5,3.2l4.6-15.1l3.7-0.3l3.1,13.1l0.4,3l4.2-13.8
			l-4-1.3l0.4-2l10.2,0.4l-0.4,2l-2.9,1l-6.5,20.3l-3.2,0.4l-3.9-16.7l-4.8,15.7l-3.2,0.4l-5.2-21.2L147.7,176.9z"/>
		<path class="st0" d="M180.9,195c0-1,0.3-2,0.8-2.9c0.6-1,1.3-1.8,2.2-2.5c1.2-0.9,2.5-1.5,3.9-1.9c1.8-0.5,3.7-0.9,5.6-0.9v-1.5
			c0-0.9-0.1-1.8-0.2-2.6c-0.1-0.8-0.4-1.5-0.7-2.3c-0.3-0.7-0.8-1.3-1.4-1.7c-0.7-0.4-1.5-0.6-2.3-0.6c-0.4,0-0.8,0-1.2,0.1
			c-0.3,0.1-0.6,0.3-0.8,0.5c-0.2,0.3-0.4,0.6-0.5,1c-0.1,0.5-0.2,1-0.3,1.5c-0.1,0.6-0.2,1.3-0.2,2.1c0,0.2,0,0.3,0,0.4
			c-0.4,0-0.7,0-0.9,0c-0.3,0-0.7-0.1-1-0.2c-0.3-0.1-0.6-0.2-0.9-0.4c-0.3-0.2-0.5-0.5-0.6-0.8c-0.2-0.4-0.3-0.9-0.2-1.3
			c0.1-1.1,0.7-2.1,1.6-2.7c1.1-0.9,2.3-1.6,3.6-2c1.3-0.5,2.6-0.7,4-0.7c2.4,0,4,0.7,5,2c1,1.3,1.5,3.4,1.5,6.2l-0.1,9.7
			c-0.1,0.9,0.1,1.8,0.5,2.6c0.7,0.6,1.5,1,2.4,1l1.3,0.3l-0.4,2.3l-1.5,0.2c-0.7,0.1-1.4,0.2-2.2,0.2c-1.2,0.1-2.3-0.3-3.1-1.1
			c-0.6-0.7-1-1.6-1-2.5v-0.3h-0.3c-0.2,0.5-0.5,0.9-0.9,1.3c-0.4,0.5-0.9,0.9-1.4,1.3c-0.7,0.5-1.4,0.9-2.2,1.1
			c-0.9,0.3-1.9,0.4-2.8,0.3c-1.4,0-2.7-0.5-3.7-1.4C181.3,197.8,180.8,196.4,180.9,195z M185.6,193.8c0,0.8,0.3,1.5,0.8,2.1
			c0.5,0.7,1.3,1,2.2,1c0.9,0,1.8-0.3,2.6-0.7c0.8-0.4,1.5-1,2.1-1.6l0.1-6.4c-2.1,0.3-4.1,1-5.9,2.2
			C186.2,191.1,185.6,192.4,185.6,193.8L185.6,193.8z"/>
		<path class="st0" d="M203,199.7l0.2-2l4.1-1.1l-0.2-16.4l-4.4-1.2l0.4-2l7.6-1.1l0.6,0.6l-0.5,6.1h0.5c0.5-2,1.4-3.8,2.7-5.4
			c0.8-1.1,2.1-1.8,3.5-1.9c0.9-0.1,1.8,0.2,2.4,0.8c0.6,0.6,0.9,1.3,0.9,2.1c-0.1,1.3-0.8,2.6-2,3.2c-0.8-0.8-1.9-1.2-3-1.3
			c-1,0.1-2,0.7-2.6,1.6c-1,1.2-1.5,2.7-1.6,4.3l0.1,10.2l6.2,0.8l-0.2,2.3L203,199.7z"/>
		<path class="st0" d="M223.6,199.6l0.2-2l3.9-1.3l-0.9-16.2l-4.3-1.1l0.2-2l8-1.6l0.5,0.5l-0.3,3.4h0.2c0.9-1.3,2.1-2.3,3.4-3.1
			c1.3-0.9,2.8-1.4,4.4-1.4c1.3-0.1,2.6,0.2,3.7,0.9c1.2,0.7,2,1.9,2.4,3.2h0.3c0.9-1.3,2-2.3,3.3-3.2c1.3-0.9,2.8-1.3,4.4-1.4
			c4.2-0.2,6.4,2.1,6.7,7.1l0.7,13.1l3.7,0.8l-0.2,2.1l-11.3,0.6l0.1-2l3.3-1.2l-0.7-12.6c0-1.2-0.5-2.4-1.4-3.3
			c-0.9-0.9-2.1-1.3-3.4-1.2c-1,0-1.9,0.3-2.7,0.9c-0.8,0.6-1.6,1.3-2.2,2.1l0.8,14.6l4,0.7l-0.2,2.1l-11.8,0.6l0.2-2l3.4-1.2
			l-0.7-12.6c0-1.3-0.6-2.5-1.5-3.3c-0.9-0.8-2.1-1.2-3.3-1.1c-2,0-3.9,1-5.1,2.6l0.8,14.9l3.9,0.7l-0.2,2.1L223.6,199.6z"/>
		<path class="st0" d="M266.6,192.6c-0.1-1,0-2.1,0.4-3c0.4-1,1.1-2,1.9-2.8c1.1-1,2.3-1.8,3.6-2.4c1.7-0.8,3.6-1.3,5.5-1.6
			l-0.1-1.5c-0.1-0.9-0.2-1.8-0.5-2.6c-0.2-0.8-0.6-1.5-1-2.2c-0.4-0.6-1-1.1-1.6-1.4c-0.7-0.3-1.5-0.5-2.3-0.4
			c-0.4,0-0.8,0.1-1.2,0.3c-0.3,0.1-0.5,0.3-0.7,0.6c-0.2,0.3-0.3,0.6-0.4,1c-0.1,0.5-0.1,1-0.1,1.5c0,0.6,0,1.3,0,2.1
			c0,0.2,0,0.3,0,0.4c-0.4,0-0.7,0.1-0.9,0.1c-0.3,0-0.7,0-1-0.1c-0.4,0-0.7-0.2-1-0.3c-0.3-0.2-0.5-0.4-0.7-0.8
			c-0.2-0.4-0.4-0.8-0.4-1.3c0-1.1,0.4-2.1,1.2-2.8c1-1,2.1-1.8,3.4-2.4c1.2-0.6,2.5-1,3.9-1.1c2.3-0.2,4.1,0.2,5.2,1.4
			s1.9,3.2,2.2,6l1,9.6c0,0.9,0.3,1.8,0.8,2.5c0.7,0.5,1.6,0.8,2.5,0.8l1.4,0.1l-0.1,2.3l-1.4,0.4c-0.7,0.2-1.4,0.4-2.1,0.5
			c-1.1,0.2-2.3-0.1-3.2-0.8c-0.7-0.6-1.2-1.4-1.3-2.4v-0.4h-0.3c-0.2,0.5-0.4,0.9-0.7,1.4c-0.4,0.5-0.8,1-1.3,1.5
			c-0.6,0.6-1.3,1-2.1,1.3c-0.9,0.4-1.8,0.6-2.8,0.7c-1.4,0.2-2.7-0.2-3.8-1C267.3,195.2,266.7,193.9,266.6,192.6z M271.1,190.8
			c0.1,0.8,0.4,1.5,1,2c0.6,0.6,1.4,0.9,2.3,0.8c0.9-0.1,1.8-0.4,2.5-1c0.7-0.5,1.4-1.1,1.9-1.8l-0.6-6.4c-2.1,0.5-4,1.5-5.6,2.8
			C271.4,188.1,270.9,189.5,271.1,190.8L271.1,190.8z"/>
		<path class="st0" d="M296.8,186.1c-0.2-1.2-0.2-2.4,0.1-3.6c0.2-1,0.7-2,1.3-2.9c0.6-0.8,1.3-1.5,2.2-2c0.8-0.5,1.8-0.9,2.7-1
			c1.9-0.4,3.9,0.1,5.4,1.4c1.6,1.5,2.5,3.4,2.8,5.6c0.4,2.1,0,4.4-1.2,6.2c-1.1,1.7-2.9,2.8-4.9,3.1c-2,0.4-4.1-0.1-5.6-1.4
			C298,190.1,297,188.1,296.8,186.1z M299.7,184.4c0.1,0.9,0.4,1.8,0.7,2.6c0.3,0.8,0.7,1.6,1.1,2.2c0.4,0.7,1,1.2,1.7,1.5
			c0.7,0.3,1.5,0.4,2.3,0.3c1.1-0.1,2-0.9,2.4-1.9c0.5-1.2,0.6-2.4,0.4-3.7c-0.1-0.9-0.4-1.8-0.7-2.6c-0.3-0.8-0.7-1.6-1.1-2.3
			c-0.4-0.7-1-1.2-1.7-1.6c-0.7-0.4-1.4-0.5-2.2-0.4c-0.8,0.1-1.5,0.5-2,1.1c-0.5,0.6-0.9,1.3-1,2.1
			C299.5,182.6,299.5,183.5,299.7,184.4z"/>
		<path class="st0" d="M314.8,190.9l-0.1-1.3l2.5-1.2l-2-10.5l-2.8-0.4l-0.1-1.4l5-1.7l0.4,0.3l0.1,2.3h0.2c0.5-0.9,1.2-1.7,2-2.4
			c0.8-0.7,1.7-1.2,2.7-1.4c1.2-0.3,2.4,0,3.4,0.7c1,0.9,1.6,2.1,1.8,3.4l1.7,8.7l2.6,0.2l0.1,1.4l-7.8,1.5l-0.1-1.3l2.2-1.2l-1.5-8
			c-0.1-0.9-0.6-1.7-1.3-2.2c-0.7-0.4-1.5-0.6-2.3-0.4c-1.3,0.2-2.5,1-3.1,2.1l1.9,9.7l2.7,0.1v1.4L314.8,190.9z"/>
		<path class="st0" d="M339.5,185.9l-0.1-1.3l2.4-1.4l-2.8-11.4l-2.5,0.6l-0.1-1.3l2.3-1c-0.2-1.1-0.1-2.3,0.1-3.4
			c0.3-1.8,1.3-3.4,2.7-4.5c0.5-0.4,1.2-0.8,1.8-0.9c0.8-0.2,1.6-0.3,2.5-0.1c0.6,0.1,1.1,0.6,1.2,1.2c0.1,0.4,0,0.9-0.2,1.3
			c-0.2,0.4-0.5,0.7-0.8,1c-0.6-0.4-1.2-0.8-1.8-1.1c-0.5-0.3-1.1-0.4-1.7-0.2c-0.6,0.1-1.2,0.6-1.4,1.2c-0.2,1-0.2,2,0.1,3l0.4,1.9
			l4.4-1.1l0.2,1.6l-4.2,1l2.8,11.4l4.4-0.4l0.2,1.4L339.5,185.9z"/>
		<path class="st0" d="M348.4,161.8c-0.2-0.5-0.1-1.1,0.2-1.5c0.3-0.5,0.7-0.8,1.3-1c0.5-0.2,1.1-0.1,1.6,0.1c0.5,0.2,0.9,0.7,1,1.2
			c0.3,1.1-0.3,2.3-1.5,2.7c-0.5,0.2-1.1,0.1-1.6-0.2C348.9,162.8,348.5,162.4,348.4,161.8z M352.1,182.7l-0.2-1.4l2.4-1.4l-3-10.4
			l-2.8-0.2l-0.1-1.4l4.6-1.7l0.5,0.3l3.6,12.6l2.9-0.2l0.2,1.4L352.1,182.7z"/>
		<path class="st0" d="M362.2,179.8l-0.2-1.3l2.3-1.5l-3.4-10.3l-3,0.1l-0.2-1.4l4.6-2.2l0.5,0.3l1,4l0.3-0.1
			c-0.1-1.3,0.1-2.7,0.6-3.9c0.3-0.9,1-1.6,1.8-1.9c0.5-0.2,1.1-0.2,1.6,0.1c0.5,0.2,0.8,0.6,1,1.1c0.2,0.9,0,1.8-0.6,2.4
			c-0.7-0.3-1.4-0.4-2.1-0.2c-0.6,0.3-1.1,0.8-1.3,1.5c-0.3,1-0.4,2-0.2,3l2.1,6.4l4.1-0.7l0.3,1.5L362.2,179.8z"/>
		<path class="st0" d="M373.5,168c-0.5-1.1-0.7-2.3-0.8-3.5c0-1.1,0.1-2.1,0.5-3.1c0.4-0.9,0.9-1.7,1.5-2.4c0.6-0.7,1.3-1.2,2.2-1.5
			c1.2-0.5,2.5-0.5,3.7,0c1.3,0.7,2.4,1.9,2.9,3.3c0.3,0.7,0.5,1.5,0.6,2.2l-7.8,3.4c0.2,0.5,0.5,1,0.9,1.5c0.3,0.5,0.7,0.9,1.2,1.3
			c0.4,0.4,0.9,0.7,1.4,0.9c0.5,0.2,1.1,0.4,1.6,0.4c0.6,0,1.2-0.1,1.8-0.4c0.5-0.2,0.9-0.4,1.1-0.5c0.4-0.2,0.7-0.4,1-0.7
			c0.4-0.4,0.9-0.8,1.2-1.2l0.7,0.7c-0.4,1-0.9,1.9-1.7,2.6c-0.8,0.8-1.7,1.4-2.7,1.8c-0.8,0.3-1.6,0.5-2.5,0.5
			c-0.9,0-1.7-0.2-2.5-0.6c-0.9-0.4-1.7-1-2.4-1.8C374.6,170.1,373.9,169.1,373.5,168z M375.7,165.3l5-2.5c-0.1-0.4-0.2-0.8-0.4-1.2
			c-0.8-2-2-2.7-3.5-2.1c-0.8,0.4-1.3,1.1-1.5,2C375.1,162.8,375.2,164.1,375.7,165.3z"/>
		<path class="st0" d="M419.8,110.3l3.1,10c0,0,7.1-0.6,5.2-7C428.1,113.2,426.3,106.8,419.8,110.3z"/>
		<path class="st0" d="M415.5,108.4c-1.4,0.2-2.4,1.5-2.2,2.9l3,10.3c3.7,16.5-10.4,21.6-10.4,21.6c-13.2,4.4-20.5-9.6-20.5-9.6
			c-0.8-3-3.6-16.7-3.6-16.7c-1.1-6.5-3.8-8.3-3.8-8.3c-6.8-6.2-12.4-0.9-12.4-0.9c-2.2,2-3.3,4.9-2.9,7.8c0.4,2.4,2,4.5,4.3,5.3
			c2.3,0.4,4.4-1,5-3.2c0.5-2.7-2.7-3.2-2.7-3.2c0.6,0.6,0.5,1.6-0.1,2.2c-0.7,0.7-1.8,0.8-2.6,0.1c-0.1-0.1-0.1-0.2-0.2-0.2
			c-1-1.3-1-3.2,0-4.6c4.3-4,8.7,0.2,8.7,0.2c2,1.7,3.2,4.2,3.4,6.8c0,2.6,0.8,9.4,0.8,9.4c0.9,5.2,3.2,10.1,6.8,14.1
			c15.6,15,29.2,1.2,29.2,1.2c13.5-10.9,3.4-32.2,3.4-32.2C417.2,107.7,415.5,108.4,415.5,108.4z"/>
		<path class="st0" d="M386.2,132.3c3.3,2.4,5.8-1.8,5.8-1.8c2.3,1.4,5.2,0.6,6.6-1.6c0.1-0.1,0.1-0.2,0.2-0.4c4.2,1.4,6-1.8,6-1.8
			c2.3,1.3,5.4-2.2,5.4-2.2c2.7,2,4.9-2,4.9-2l-2.6-8.9c-3.6-2.3-5.8,3.2-5.8,3.2c-2.3-2.5-5.2,1-5.2,1c-2.6-2-5.6,2.7-5.6,2.7
			c-1.9-2.5-5.4,2.4-5.4,2.4c-3.2-3.8-6.2-2-6.2-2L386.2,132.3z"/>
		<path class="st0" d="M374.5,125.1c-104.9,18-279.9,19.3-360.8-17.9c1.8,17.4,24.6,27.1,40,32.1c49.8,16.3,150.6,28.3,270.4,10.4
			c15.7-2.4,38.4-7.3,53.1-10.9L374.5,125.1z"/>
		<path class="st0" d="M446.5,7.3c0,4-3.3,7.3-7.3,7.3c-4,0-7.3-3.3-7.3-7.3c0-4,3.3-7.3,7.3-7.3C443.2,0,446.4,3.3,446.5,7.3z
			 M433.7,7.3c-0.1,3,2.3,5.6,5.4,5.7c0.1,0,0.1,0,0.2,0c3,0,5.4-2.4,5.4-5.4c0-0.1,0-0.1,0-0.2c0.1-3-2.2-5.6-5.2-5.7
			c-3-0.1-5.6,2.2-5.7,5.2C433.7,7,433.7,7.2,433.7,7.3L433.7,7.3z M438.1,11h-1.6V3.9c0.9-0.1,1.8-0.2,2.7-0.2
			c0.8-0.1,1.7,0.1,2.4,0.6c0.5,0.3,0.8,0.9,0.7,1.5c0,0.8-0.7,1.5-1.5,1.7v0.1c0.7,0.2,1,0.8,1.3,1.7c0.1,0.6,0.3,1.2,0.5,1.7h-1.7
			c-0.3-0.6-0.5-1.2-0.6-1.8c-0.1-0.7-0.6-1.1-1.5-1.1h-0.8V11z M438.1,7h0.8c0.9,0,1.6-0.3,1.6-1S440,4.9,439,4.9
			c-0.3,0-0.6,0-0.9,0.1L438.1,7z"/>
		<path class="st0" d="M0,77.3c0.3-1.3,0.5-2.6,0.6-3.9c0.1-1.3,0.1-2.7,0.1-4.1c0-1.4,0-2.8,0-4.2c0-1.4,0.1-2.8,0.3-4.2
			c0-0.6,0.2-0.8,0.7-0.7l1.2,0.2c0.3,0.1,0.7,0.1,1,0.3c0.7,0.2,1.1,0.9,1.1,1.6c0.1,1.1,0.4,2.1,0.7,3.1c0.4,1.3,0.9,2.6,1.5,4.1
			c1,2.9,2.6,5.7,4.5,8.1c2,2.3,4.7,4.1,7.6,5.1c1.7,0.7,3.6,1,5.5,0.8c1.5-0.2,2.9-0.8,4.1-1.7c1.2-1,2.3-2.3,3.1-3.7
			c0.9-1.6,1.6-3.2,2.1-4.9c0.7-2,0.9-4,0.7-6.1C34.6,65,34,63.1,33,61.5c-1.1-1.9-2.4-3.7-4-5.3c-1.9-1.9-3.9-3.8-6-5.5
			c-2.9-2.4-5.6-4.9-8.2-7.5c-2.1-2.2-3.9-4.7-5.1-7.5c-0.8-1.7-1.3-3.5-1.4-5.3c-0.2-2.2,0-4.4,0.7-6.5c0.9-3.1,2.6-5.8,5-7.9
			c2.2-1.9,4.9-3.1,7.8-3.5c1.2-0.1,2.4-0.1,3.7-0.1c1.7,0,3.6,0.1,5.7,0.3c2.1,0.2,4.2,0.5,6.5,0.9c2.1,0.4,4.2,0.9,6.2,1.6
			c0.8,0.3,1.8,0.7,3.1,1.2c1.3,0.5,2.5,1.1,3.8,1.6l3.6,1.6c1.1,0.5,1.9,0.9,2.4,1.1c2.2,1.2,4,2.2,5.3,2.9c1,0.5,2,1.1,2.9,1.8
			c0.5,0.4,0.9,1.1,1,1.8c0.1,0.9,0,1.7-0.3,2.6c-0.3,1.1-0.6,2.5-1,4.3c-0.4,1.8-0.8,4.1-1.1,7c0.1,0.3,0,0.6-0.2,0.9
			c-0.2,0.1-0.3,0.3-0.5,0.3c-0.4,0.1-0.9,0.1-1.3,0c-0.7-0.1-1.3-0.2-2-0.3l-2-0.4c-0.4-0.1-0.9-0.1-1.3-0.1c-0.4,0-0.6-0.3-0.6-1
			c-0.1-2.1-0.4-4.2-0.8-6.2c-0.4-1.9-1.3-3.8-2.5-5.3c-1.1-1.6-2.5-2.9-4.1-4c-1.9-1.3-3.9-2.4-6.1-3.1c-1.8-0.6-3.7-1-5.5-1.3
			c-2-0.3-4.1-0.4-6.1-0.3c-1.8,0-3.5,0.4-5.2,1c-1.3,0.5-2.4,1.5-2.9,2.9c-0.5,1.6-0.6,3.2-0.3,4.8c0.2,1.6,0.7,3.1,1.5,4.5
			c1.1,1.8,2.6,3.5,4.2,4.9c2,1.7,4.4,3.8,7.3,6.1c3,2.4,5.7,5.2,7.8,8.4c1.9,2.9,3.5,5.4,4.7,7.5c1.5,2.2,2.3,4.8,2.3,7.4
			c-0.1,2.5-0.6,5-1.4,7.3c-0.6,1.9-1.6,3.6-2.8,5.1c-2.6,3.3-5.9,5.9-9.7,7.8c-1.6,0.8-3.4,1.4-5.2,1.6c-2.1,0.3-4.1,0.4-6.2,0.4
			c-1.6,0-3.2-0.2-4.8-0.6c-1.5-0.4-3-1-4.5-1.7c-1.8-0.9-3.5-1.9-5.1-3L0,77.3z"/>
		<path class="st0" d="M88.1,27.1c0.5,0,0.8,0.1,1,0.3c0.2,0.4,0.4,0.8,0.6,1.3c1.5,4.5,2.9,8.7,4.2,12.8s2.8,8.4,4.5,13
			c0.8,2.2,1.8,5,3,8.3c1.2,3.3,2.4,6.5,3.6,9.7c1.2,3.2,2.3,6.1,3.3,8.7s1.7,4.3,2.1,5.2c0.2,0.7,0.5,1.8,0.9,3.1
			c0.4,1.5,0.8,2.9,1.1,4.4c0.3,1.7,0.5,3.3,0.6,5c0.1,1.7-0.1,3.3-0.7,4.9c-0.5,1.6-1.4,3-2.6,4.2c-1.4,1.4-3.2,2.3-5.2,2.7
			c-0.8,0.2-1.8,0.5-3,0.8l-3.6,0.9c-1.2,0.3-2.2,0.5-3.2,0.7c-0.6,0.1-1.2,0.2-1.8,0.3c-0.3,0-0.6-0.1-0.7-0.3
			c-0.1-0.3-0.3-0.8-0.6-1.5s-0.3-1.1-0.2-1.2c2.3-0.4,4.3-1.6,5.9-3.3c1.2-1.4,2.1-3,2.6-4.8c0.5-1.5,0.7-3.1,0.7-4.7
			c-0.1-1.5-0.1-2.6-0.2-3.2c-0.1-0.7-0.3-1.4-0.5-2.1c-0.3-1-0.7-2.2-1.2-3.6c-0.5-1.4-1-2.8-1.6-4.3l-1.6-4.3
			c-0.5-1.3-0.9-2.5-1.3-3.5c-0.4-1-0.7-1.6-0.8-1.9c-0.6-1.4-1.3-2.2-2.1-2.2c-13,1.4-20.2,2.2-21.6,2.2c-0.7,0.1-1.4-0.2-1.8-0.8
			c-0.3-0.6-1.2,0.5-2.5,3.1c0.7-1.1,0.8-1.1,0.3,0.3s-1.1,2.8-1.8,4.3c-0.7,1.6-1.4,3.2-2.3,4.9c-0.8,1.6-1.8,3.1-3,4.5
			c-1.1,1.3-2.3,2.4-3.8,3.3c-1.4,0.8-3,1.2-4.6,1.1h-0.9l-0.2,0.1h-0.1c-0.4,0-0.7-0.1-0.7-0.4c-0.2-0.5-0.4-1-0.5-1.5
			c-0.2-0.7-0.2-1.1,0-1.3c1.2-0.2,2.4-0.8,3.3-1.7c1-0.9,1.8-1.9,2.4-3c0.7-1.2,1.3-2.4,1.8-3.7c0.6-1.3,1.2-2.5,1.9-3.7
			c0.9-1.5,2.1-3.9,3.6-7.2c1.5-3.3,3.2-6.9,5.1-10.9c1.9-4,3.8-8.1,5.9-12.3c2-4.2,4-8,6-11.4c1.6-2.9,3.4-5.7,5.4-8.3
			C85.4,27.9,86.8,26.9,88.1,27.1L88.1,27.1z M72.2,69.7c0.6,0,3.2-0.3,7.8-1c4.6-0.7,7.4-1,8.4-1c0.7,0.1,1.3-0.1,1.9-0.5
			c0.3-0.3,0.4-0.6,0.3-0.8c-0.9-2.7-1.7-5-2.4-7.1s-1.4-4-2-5.7C85.5,52,85,50.4,84.4,49c-0.5-1.4-1-2.8-1.6-4.1
			c-0.1-0.3-0.3-0.5-0.6-0.5c-0.2,0-0.5,0.2-0.6,0.4c-1.1,2-2,3.8-2.8,5.3s-1.5,3.1-2.3,4.6c-0.7,1.5-1.8,3.6-3.1,6.2
			c-1.3,2.6-2.6,5.2-3.7,7.6c-0.2,0.2,0,0.5,0.4,0.8c0.6,0.3,1.2,0.5,1.8,0.5L72.2,69.7z"/>
		<path class="st0" d="M113.1,118.2c1.8-0.5,3.5-1.3,5-2.4c1.1-0.9,2-1.9,2.8-3.1c0.6-0.9,1-1.9,1.1-3c0.1-0.9,0.2-1.6,0.3-2
			c0-1.6,0-4,0-7.1c0-3.1,0-6.6-0.1-10.4c0-3.8-0.1-7.8-0.2-11.9s-0.1-8-0.2-11.6c0-3.6,0-6.8-0.1-9.4c-0.1-2.7-0.1-4.5,0-5.5
			c0-0.7,0-1.5-0.1-2.2c-0.1-0.5-0.3-1-0.7-1.4c-0.5-0.4-1.2-0.8-1.8-1c-0.8-0.3-2-0.7-3.5-1.1c0-0.3,0-0.7,0.1-1
			c0.1-0.4,0.3-0.9,0.4-1.3c0.1-0.3,0.5-0.4,1.2-0.3l1.6,0.2c0.9,0.1,1.9,0.3,3,0.4c1.1,0.1,2.4,0.3,3.8,0.5
			c1.3,0.2,2.5,0.3,3.5,0.5l25-0.8c1.6,0.2,3.1,0.5,4.6,0.9c1.1,0.3,2.2,0.7,3.2,1.1c0.8,0.3,1.5,0.7,2.3,1.1c0.6,0.4,1.3,0.7,2,1.1
			c-0.2,1.5-0.5,3-0.9,4.5c-0.4,1.5-0.8,2.9-1.2,4.1c-0.4,1.2-0.7,2.3-1,3.2c-0.2,0.6-0.4,1.2-0.5,1.9c0,0.2-0.1,0.4-0.3,0.5
			c-0.1,0.1-0.5,0.1-1,0c-0.6-0.1-1.3-0.3-1.9-0.5c-0.2-0.1-0.3-0.3-0.4-0.5c-0.2-2-0.7-4-1.6-5.8c-0.7-1.3-1.9-2.4-3.2-3.1
			c-1.3-0.7-2.7-1.2-4.1-1.4c-1.6-0.3-3.9-0.6-6.8-1l-2.4-0.3c-0.6-0.1-1.2-0.1-1.8-0.1c-0.5,0-1,0-1.4,0c-0.5,0-1,0-1.5,0.1
			c-0.5,0-0.9,0.3-1.2,0.7c-0.4,0.8-0.7,1.7-0.8,2.7c-0.5,2.4-0.8,4.9-0.9,7.4c-0.2,3-0.3,5.8-0.3,8.7s0,5.3,0,7.4
			c0,2.1,0,3.2,0.1,3.4c0,0.4,0.1,0.8,0.4,1.1c0.3,0.2,0.7,0.3,1.1,0.3c0.7,0,1.3,0,2,0l2.9-0.2c1.2,0,2.4-0.1,3.5-0.1
			c1,0,2-0.2,2.9-0.6c0.8-0.4,1.6-1,2.1-1.7c0.6-1,1-2.2,1.1-3.4c0.3-0.2,0.6-0.3,1-0.3c0.6-0.1,1.2-0.2,1.9-0.2
			c0.7,0,1.3-0.1,1.9-0.1c0.6,0,0.9,0.1,1,0.2c0.1,0.9,0,1.8-0.1,2.7c-0.1,1.1-0.4,2.1-0.7,3.2c-0.3,1-0.7,2-1.2,3
			c-0.4,0.9-1,1.7-1.6,2.3c-0.8,0.5-1.7,0.8-2.6,0.8c-0.8-0.1-1.6-0.3-2.4-0.6c-0.8-0.3-1.8-0.7-3-1.1c-1.5-0.4-3.1-0.6-4.6-0.6
			l-3.6,0.1c-0.6,0-1.3,0.2-1.7,0.7c-0.4,0.7-0.5,1.4-0.5,2.2c0,1,0,2.5,0.1,4.6s0.1,3.7,0,5.1c0,1.4,0,2.6,0,3.5c0,1-0.1,2-0.3,3
			c-0.3,1.4-0.8,2.9-1.4,4.2c-0.7,1.6-1.5,3.2-2.5,4.7c-1.1,1.6-2.3,3.1-3.8,4.3c-1.5,1.3-3.3,2.4-5.1,3.2c-2.1,0.9-4.4,1.3-6.7,1.3
			c-0.5,0.1-0.9-0.2-1-0.7c-0.4-0.9-0.5-1.9-0.1-2.8L113.1,118.2z"/>
		<path class="st0" d="M176.1,124.4c1.8-0.6,3.4-1.6,4.8-2.9c1-1,1.9-2.1,2.5-3.3c0.5-1,0.8-2,0.9-3.1c0.1-0.9,0.1-1.6,0.1-2.1
			c-0.1-1.6-0.3-3.9-0.6-7.1s-0.6-6.6-0.9-10.4c-0.4-3.8-0.7-7.7-1.2-11.8s-0.8-8-1.1-11.6c-0.3-3.6-0.6-6.7-0.9-9.4
			c-0.2-2.7-0.4-4.5-0.4-5.5c0-0.7-0.1-1.4-0.3-2.1c-0.1-0.5-0.4-1-0.8-1.3c-0.6-0.4-1.2-0.7-1.9-0.9c-0.8-0.2-2-0.5-3.6-0.8
			c-0.1-0.3-0.1-0.7,0-1c0.1-0.4,0.2-0.9,0.3-1.3c0.1-0.3,0.4-0.4,1.1-0.4l1.6,0.1c0.9,0.1,1.9,0.1,3,0.1c1.1,0,2.4,0.1,3.8,0.1
			c1.3,0.1,2.5,0.1,3.5,0.1l24.8-3.1c1.6,0,3.1,0.2,4.6,0.4c1.1,0.2,2.2,0.5,3.3,0.8c0.8,0.3,1.6,0.6,2.4,0.9
			c0.7,0.3,1.4,0.6,2.1,0.9c-0.1,1.5-0.3,3.1-0.6,4.6c-0.3,1.5-0.6,2.9-0.9,4.2c-0.3,1.3-0.6,2.4-0.8,3.3c-0.2,0.6-0.3,1.3-0.3,1.9
			c0,0.2-0.1,0.4-0.2,0.5c-0.1,0.1-0.5,0.1-1,0.1c-0.7-0.1-1.3-0.2-1.9-0.4c-0.2-0.1-0.3-0.2-0.4-0.4c-0.3-2-1-3.9-2.1-5.6
			c-0.8-1.3-2-2.3-3.4-2.8c-1.4-0.5-2.8-0.9-4.2-1c-1.6-0.2-3.9-0.3-6.9-0.3l-2.4-0.1c-0.6,0-1.2,0-1.8,0c-0.5,0-1,0.1-1.4,0.1
			c-0.5,0-1,0.1-1.5,0.2c-0.5,0.1-0.9,0.4-1.2,0.8c-0.4,0.9-0.6,1.8-0.6,2.7c-0.3,2.5-0.4,5-0.3,7.4c0.1,3,0.2,5.8,0.4,8.7
			s0.4,5.3,0.6,7.3c0.2,2.1,0.3,3.2,0.4,3.4c0,0.4,0.2,0.8,0.5,1.1c0.4,0.2,0.8,0.3,1.2,0.2c0.7,0,1.3-0.1,2-0.2l2.9-0.4
			c1.2-0.2,2.4-0.3,3.4-0.5c1-0.1,1.9-0.4,2.8-0.9c0.8-0.5,1.5-1.1,1.9-1.9c0.5-1,0.8-2.2,0.9-3.4c0.1-0.1,0.4-0.3,0.9-0.4
			c0.6-0.2,1.2-0.3,1.8-0.4c0.7-0.1,1.3-0.2,1.9-0.2c0.6,0,0.9,0,1.1,0.1c0.1,0.9,0.2,1.8,0.1,2.7c-0.1,1.1-0.2,2.2-0.4,3.2
			c-0.2,1.1-0.5,2.1-0.9,3.1c-0.3,0.9-0.8,1.7-1.4,2.5c-0.7,0.6-1.6,1-2.6,1.1c-0.8,0-1.6-0.1-2.4-0.4c-0.9-0.3-1.9-0.5-3.1-0.8
			c-1.5-0.3-3.1-0.3-4.7-0.1l-3.6,0.5c-0.6,0-1.2,0.3-1.6,0.8c-0.3,0.7-0.4,1.4-0.3,2.2c0.1,1,0.2,2.5,0.5,4.5
			c0.2,2,0.4,3.7,0.4,5.1c0.1,1.4,0.2,2.6,0.3,3.5c0.1,1,0.1,2-0.1,3.1c-0.2,1.5-0.5,2.9-1,4.3c-0.6,1.7-1.3,3.3-2.1,4.9
			c-0.9,1.7-2.1,3.3-3.4,4.7c-1.4,1.5-3,2.7-4.8,3.7c-2,1.1-4.3,1.7-6.6,1.9c-0.5,0.1-0.9-0.1-1.1-0.6c0,0,0,0,0,0
			c-0.5-0.8-0.6-1.8-0.4-2.8L176.1,124.4z"/>
		<path class="st0" d="M229.2,44.7c-0.1-0.4,0.2-0.7,1-0.9c1.4-0.1,2.9-0.1,4.3,0.1c1.6,0.1,3.2,0.3,4.8,0.5s3.2,0.4,4.8,0.5
			c1.4,0.1,2.8,0.2,4.1,0.1c1.6-0.2,2.8-0.4,3.7-0.5c0.9-0.1,1.7-0.2,2.4-0.3s1.3-0.2,1.9-0.2l2.3-0.2c3.5-0.2,7.1-0.2,10.6,0.2
			c3.6,0.4,7.1,1.5,10.3,3.2c1.3,0.7,2.4,1.6,3.4,2.6c1,1.1,1.9,2.2,2.7,3.5c0.8,1.2,1.4,2.5,1.9,3.8c0.4,1.2,0.7,2.4,0.8,3.6
			c0.1,2.2-0.1,4.4-0.7,6.5c-0.6,2.1-1.3,4.2-2.2,6.2c-0.8,1.8-1.8,3.5-3,5.1c-0.9,1.2-1.9,2.3-3.2,3.1c-0.3,0.2-0.5,0.5-0.6,0.8
			c-0.1,0.4-0.1,0.8,0.1,1.1c0.5,1.2,1.2,2.3,1.9,3.3c1.1,1.6,2.4,3.4,3.8,5.4c1.5,2,3,4,4.5,6c1.5,2,2.8,3.8,3.9,5.3
			c2.5,3.5,5.7,6.5,9.2,8.8c3.5,2.3,7.3,4.2,11.3,5.5c0.5,0.1,0.9,0.4,1.1,0.9c0.1,0.5,0.1,1,0,1.5c0,0.4-0.2,0.8-0.5,1.1
			c-0.2,0.2-0.4,0.3-0.6,0.3c-4.8,0.1-9.5-0.6-14.1-1.8c-4.3-1.2-8.4-3.4-11.9-6.2c-1.2-0.9-2.7-2.3-4.5-4.1
			c-1.9-1.8-3.7-3.7-5.7-5.8c-1.9-2.1-3.7-4.1-5.4-6.2c-1.4-1.7-2.7-3.4-3.8-5.3c-0.6-0.9-1.1-1.7-1.6-2.4c-0.5-0.7-1.1-1.2-1.8-1.7
			c-0.8-0.4-1.6-0.7-2.5-0.8c-1.2-0.1-2.5-0.2-3.7-0.1c-1.1,0.1-2,0.2-2.7,0.2c-0.6,0.1-1.3,0.2-1.9,0.4c-0.3,0.1-0.6,0.4-0.7,0.7
			c-0.2,0.3-0.2,0.7-0.2,1.1c0.1,2.1,0.2,3.7,0.2,4.8c0,1.1,0,2.1-0.1,2.8c0,0.8,0,1.4,0,2c0,0.9,0.1,1.8,0.2,2.6
			c0.1,0.8,0.2,1.7,0.1,2.5c0,0.6-0.1,1.2-0.3,1.7c-0.7,3.7-2.8,7-5.8,9.2c-3.1,2.1-6.7,3.3-10.4,3.4c-1.1,0.1-1.7,0-1.8-0.2
			c-0.2-0.5-0.4-1-0.5-1.5c-0.2-0.5-0.2-1-0.2-1.6c1.3-0.4,2.5-1,3.6-1.9c0.9-0.6,1.8-1.4,2.6-2.2c0.4-1,0.6-2.1,0.5-3.2
			c0.1-1.7,0.1-3.8,0-6.3c-0.1-2.5-0.2-5.3-0.3-8.4c-0.1-3.1-0.3-6.2-0.5-9.4l-0.7-12.4c-0.1-1.5-0.2-3-0.3-4.6s-0.3-3.1-0.4-4.6
			c-0.1-1.5-0.2-2.9-0.4-4.2c-0.1-1.3-0.2-2.4-0.2-3.4c0-0.9-0.2-1.7-0.4-2.5c-0.2-0.8-0.6-1.5-1.1-2.1c-0.6-0.7-1.4-1.3-2.3-1.7
			c-1.4-0.6-2.8-1-4.3-1.3L229.2,44.7z M273.9,62.5c-0.1-2.1-0.6-4.1-1.5-6c-0.8-1.8-2-3.5-3.3-4.9c-1.3-1.4-2.9-2.5-4.7-3.2
			c-1.7-0.8-3.6-1.1-5.5-1c-1.1,0-2.2,0.2-3.3,0.5c-0.9,0.2-1.7,0.6-2.5,0.9c-0.9,0.4-1.6,1.2-1.8,2.1c0,0.7,0,1.9,0,3.5
			s0,3.4,0.1,5.5c0,2.1,0.1,4.2,0.2,6.5s0.2,4.5,0.3,6.8l0.3,5.8c0.1,1.3,0.2,2.3,0.2,3c0,0.4,0.1,0.8,0.3,1.2
			c0.1,0.2,0.3,0.3,0.5,0.3c0.6,0.1,1.1,0.2,1.7,0.1l2.8-0.2c2.7-0.1,5.4-0.6,7.9-1.5c2.1-0.8,4-2.1,5.4-3.9c0.6-0.9,1.1-1.9,1.4-3
			c0.4-1.4,0.7-2.8,0.9-4.2c0.2-1.5,0.4-3,0.5-4.5C273.9,65.2,274,63.9,273.9,62.5L273.9,62.5z"/>
		<path class="st0" d="M322.9,39.8c4.3-0.7,8.7-0.6,13,0.3c3.9,0.8,7.6,2.4,10.9,4.7c6.5,4.5,10.8,11.5,11.9,19.3
			c0.4,2.6,0.4,5.3,0.1,7.9c-0.3,2.4-0.9,4.8-1.7,7.1c-0.8,2.1-1.8,4.1-3,6c-1.1,1.7-2.4,3.4-3.8,4.9c-2.6,3-5.6,5.6-8.9,7.6
			c-2.5,1.5-5.3,2.5-8.1,3c-5.1,0.9-10.3,0.7-15.3-0.5c-4.6-1.3-9-3.4-12.8-6.3c-6-4.7-10-11.5-11.2-19.1c-0.5-3.9-0.1-7.9,1.1-11.7
			c1.4-4.2,3.7-8.1,6.8-11.3c2.7-3.1,5.8-5.7,9.3-7.8C314.6,41.7,318.6,40.3,322.9,39.8L322.9,39.8z M320.5,43.5
			c-1.1,0.1-2.1,0.4-3.1,0.9c-0.9,0.4-1.7,1-2.5,1.6c-0.8,0.7-1.5,1.5-2.2,2.3c-0.7,0.9-1.4,1.9-2.2,3.1c-2,2.8-3.2,6-3.6,9.4
			c-0.4,3.6-0.4,7.2,0.1,10.8c0.5,4.1,1.8,8,3.8,11.5c1.8,3.1,4.1,5.8,7,8c1.7,1.3,3.3,2.3,4.6,3.1c1.2,0.7,2.4,1.4,3.8,1.9
			c1.2,0.5,2.4,0.7,3.6,0.8c1.4,0.1,2.8,0,4.1-0.2c2.1-0.3,4.1-1.2,5.7-2.5c1.8-1.5,3.3-3.3,4.2-5.4c1.2-2.6,1.9-5.4,2.2-8.2
			c0.4-3.6,0.3-7.2-0.3-10.8c-0.6-4.1-1.7-8.1-3.3-11.9c-1.7-3.9-4.4-7.3-7.8-9.8c-1-0.7-1.9-1.4-2.8-2.1c-1.9-1.5-4.2-2.5-6.6-2.8
			C323.7,43.1,322.2,43.2,320.5,43.5L320.5,43.5z M327.8,63.2c0.2,0.3,0.4,0.6,0.7,0.8c0.5,0.4,0.9,0.9,1.4,1.2
			c0.5,0.4,1,0.8,1.4,1.2s0.7,0.5,0.7,0.5c0.4,0.1,0.9,0.2,1.2,0.5c0.4,0.5,0.6,1,0.6,1.6c0.1,0.4-0.2,0.7-0.7,0.8
			c-0.3,0.2-0.6,0.5-0.9,0.8c-0.4,0.5-0.8,1-1.2,1.6c-0.4,0.6-0.8,1.2-1.2,1.8c-0.3,0.5-0.6,1-0.7,1.6c-0.1,0.5-0.6,0.8-1.5,1
			c-0.8,0.1-1.5-0.1-2.1-0.7c-0.8-0.8-1.7-1.5-2.7-2.1c-0.4-0.3-0.7-0.7-1-1.1c-0.4-0.6-1.1-1-1.8-1.2c-1-0.2-1.5-0.6-1.6-1.2
			c0-0.4,0.1-0.8,0.3-1.1c0.2-0.4,0.5-0.7,1-0.8c0.5-0.2,0.8-0.4,1.1-0.8c0.5-0.5,1-1.1,1.5-1.7c0.5-0.6,0.9-1.2,1.3-1.7
			c0.3-0.3,0.5-0.6,0.7-1c0.2-0.6,0.4-0.9,0.7-0.9l1.3-0.2C326.9,62.1,327.4,62.5,327.8,63.2z"/>
		<path class="st0" d="M355.7,34.5c1.1-0.1,2-0.1,2.9-0.2c0.8-0.1,1.8-0.1,2.9-0.1c1.1,0,2.3,0,3.8,0c1.5,0,3.4,0.1,5.7,0.2
			c1.9,0.1,3.8,0.5,5.6,1.4c2,1,3.9,2.1,5.7,3.4c3.1,1.9,8.2,4.8,15.2,8.7c7,3.9,16.1,8.8,27.3,14.5c-0.2-1.6-0.5-3.5-0.9-5.8
			c-0.4-2.3-1-5.1-1.7-8.4c-0.4-2.1-0.8-4.2-1-6.3c-0.2-1.9-0.4-3.7-0.5-5.3s-0.2-3-0.3-4.2c-0.1-1.1-0.3-2.1-0.6-3.2
			c-0.3-0.8-0.7-1.6-1.1-2.4c-0.4-0.8-1.2-1.3-2.1-1.4c-0.3,0-0.7,0-1.2,0.1l-1.7,0.2l-1.7,0.2c-0.4,0.1-0.8,0.1-1.2,0.1l-0.5-0.1
			c-0.1,0-0.1-0.2-0.2-0.5l-0.7-2.3l11.1-2.6c3.7-0.9,6.5-1.4,8.3-1.7s2.9-0.2,3.4,0.2s0.5,1.1,0.1,2.1s-1,2.3-1.7,4
			c-0.8,2-1.5,4-2.1,6.1c-0.7,2.7-1.1,5.5-1,8.3c0.1,2,0.3,4,0.3,5.9c0.1,1.9,0.2,3.8,0.4,5.7c0.2,1.9,0.4,3.9,0.7,5.9
			c0.3,2,0.6,4.1,1.1,6.4c0.8,3.7,1.4,6.8,2,9.2c0.6,2.4,0.9,3.9,1.1,4.6c0.1,0.6,0,1.2-0.3,1.6c-0.6,0.7-1.3,1.4-2.1,2
			c-0.2,0.2-0.5,0.3-0.7,0.3c-0.3-0.1-0.7-0.3-0.9-0.5c-3.8-3.2-7.8-6.2-12-8.8c-4.5-2.9-9.9-6.2-16.1-9.7
			c-6.2-3.5-11.5-6.5-15.8-8.9c-4.4-2.5-8.4-4.7-11.8-6.6c0.3,1.9,0.6,4.2,1.1,6.8l1.4,7.7c0.3,1.4,0.7,3.3,1.1,5.6
			c0.4,2.3,0.9,4.7,1.5,7.1c0.5,2.4,1.1,4.7,1.6,6.8c0.4,1.5,0.9,3,1.5,4.4c0.4,0.7,1,1.2,1.6,1.7c0.8,0.6,1.6,1.1,2.4,1.6
			c0.9,0.5,1.8,0.9,2.7,1.2c0.8,0.3,1.6,0.4,2.4,0.4l1.2,2.2c0.1,0.1,0,0.3-0.1,0.5c-0.1,0.2-0.3,0.3-0.5,0.4
			c-1.4,0.2-2.8,0.3-4.2,0.1l-6-0.5c-2.1-0.2-4.2-0.3-6.1-0.3c-1.5-0.1-3.1,0.1-4.5,0.6c-0.2-0.1-0.5-0.2-0.7-0.3
			c-0.5-0.3-0.9-0.7-1.2-1.2c-0.5-0.7-0.9-1.4-1.1-2.2c-0.4-1.1-0.6-2.3-0.6-3.5c0.1-0.9,0.4-1.7,0.9-2.4c0.7-1.3,1.4-2.6,2-3.9
			c0.7-1.7,1.3-3.5,1.6-5.3c0.4-2.2,0.4-4.5-0.1-6.7l-1.5-13.3c-0.6-2.8-1.1-5-1.5-6.6s-0.8-2.9-1.1-3.7c-0.2-0.7-0.5-1.3-0.9-1.9
			c-0.3-0.4-0.6-0.7-1-1c-1-0.7-2.1-1.2-3.3-1.7c-1.4-0.4-2.8-0.5-4.2-0.4c-0.3,0-0.5-0.1-0.8-0.2c-0.2-0.1-0.3-0.3-0.4-0.6
			L355.7,34.5z"/>
	</g>
</g>
</svg>
