<svg height="0" overflow="hidden" width="0" xmlns="http://www.w3.org/2000/svg"><defs><symbol id="dummy" viewBox="0 0 32 32"><path d="m16 0c-8.837 0-16 7.163-16 16s7.163 16 16 16c8.837 0 16-7.163 16-16-.011-8.832-7.168-15.989-15.999-16zm0 31.683c-8.662 0-15.683-7.022-15.683-15.683s7.022-15.683 15.683-15.683c8.662 0 15.683 7.022 15.683 15.683-.011 8.657-7.026 15.672-15.682 15.683zm9.128-25.03-9.128 9.122-9.128-9.122-.225.225 9.128 9.122-9.122 9.128.225.225 9.122-9.128 9.128 9.122.225-.225-9.128-9.122 9.122-9.128z"/></symbol></defs></svg>
