<svg height="500" viewbox="0 0 360 500" width="360" xmlns="http://www.w3.org/2000/svg" xmlns:xlink="http://www.w3.org/1999/xlink">
	<defs>
		<linearGradient id="grad1" x1="0%" x2="100%" y1="0%" y2="0%">
			<stop offset="4%" style="stop-color:#f39c12;stop-opacity:1"/>
			<stop offset="100%" style="stop-color:#210402;stop-opacity:1"/>
		</linearGradient>
	</defs>
	<!-- Header -->
	<g>
		<rect class="preview-fill-header_background_color" height="150" width="360" x="0" y="0"/>
		<circle cx="184" cy="45" r="20" style="fill: #fff"/>
		<image class="preview-logo-image" height="11" width="11" x="184" y="45"/>
		<text class="preview-site-title preview-fill-color_text_header" style="stroke: none; font-size: 18px;" x="144" y="85">Main title
				</text>
		<text style="stroke: none; fill: #fff; font-size: 10px" x="164" y="100">Lead text
				</text>
		<rect class="preview-fill-action_button_background" height="15" rx="5" width="55" x="158" y="120"/>
		<text class="preview-fill-color_text_header" style="stroke: none; font-size: 10px" x="173" y="131">Click
					</text>
	</g>
	<!-- Content -->
	<g>
		<rect class="preview-fill-color_background" height="130" width="360" x="0" y="150"/>
		<!-- article text-->
		<g>
			<text style="stroke: none; fill: #000; font-size: 10px; display: block" x="63" y="170">
				<tspan>Lorem ipsum dolor sit amet, consectetur adipiscing elit.
							</tspan>
				<tspan x="100" y="180">Nam iaculis odio in cursus pellentesque.
							</tspan>
				<tspan x="100" y="190">Nam iaculis odio in cursus pellentesque.
							</tspan>
			</text>
		</g>
		<!-- list of features containing text and sprite image -->
		<g>
			<circle cx="75" cy="225" r="10" style="fill: white; stroke: #000"/>
			<text cx="75" cy="225" r="10" style="fill: #fff; stroke: #000" x="45" y="250"/>
			<text class="preview-site-title" style="stroke: none; fill: #000; font-size: 10px" x="45" y="250">Lorem pirsum
						</text>
			<path d="M70 216 L80 233" style="stroke: #000;"/>
			<path d="M80 216 L70 233" style="stroke: #000;"/>
		</g>
		<g>
			<circle cx="185" cy="225" r="10" style="fill: white; stroke: #000"/>
			<text style="stroke: none; fill: #000; font-size: 10px" x="155" y="250">Lorem pirsum
						</text>
			<path d="M180 216 L190 233" style="stroke: #000;"/>
			<path d="M190 216 L180 233" style="stroke: #000;"/>
		</g>
		<g>
			<circle cx="295" cy="225" r="10" style="fill: white; stroke: #000"/>
			<text style="stroke: none; fill: #000; font-size: 10px" x="265" y="250">Lorem pirsum
						</text>
			<path d="M290 216 L300 233" style="stroke: #000;"/>
			<path d="M300 216 L290 233" style="stroke: #000;"/>
		</g>
		<g>
			<!-- container for image holders -->
			<rect class="preview-fill-color_background" height="70" style="fill: #fff" width="360" x="0" y="270"/>

			<!-- image holders -->
			<g>
				<rect height="70" style="stroke: #000; fill: #fff" width="90" x="0" y="280"/>
				<path d="M10 290 L80 340" style="stroke: #000;"/>
				<path d="M80 290 L10 340" style="stroke: #000;"/>
			</g>
			<g>
				<rect height="70" style="stroke: #000; fill: #fff" width="90" x="90" y="280"/>
				<path d="M100 290 L170 340" style="stroke: #000;"/>
				<path d="M170 290 L100 340" style="stroke: #000;"/>
			</g>
			<g>
				<rect height="70" style="stroke: #000; fill: #fff" width="90" x="180" y="280"/>
				<path d="M190 290 L260 340" style="stroke: #000;"/>
				<path d="M260 290 L190 340" style="stroke: #000;"/>
			</g>
			<g>
				<rect height="70" style="stroke: #000; fill: #fff" width="90" x="270" y="280"/>
				<path d="M280 290 L350 340" style="stroke: #000;"/>
				<path d="M350 290 L280 340" style="stroke: #000;"/>
			</g>
		</g>

		<!-- Footer -->
		<g>
			<!-- container for footer -->
			<rect class="preview-fill-footer" height="150" style="fill: #f39c12" width="360" x="0" y="350"/>

			<text style="stroke: none; fill: #fff; font-size: 13px" x="55" y="370">Footer title
														</text>
			<text style="stroke: none; fill: #fff; font-size: 10px" x="55" y="390">
				<tspan x="55" y="390">Lorem ipsum</tspan>
				<tspan x="55" y="400">Lorem ipsum dolorem</tspan>
				<tspan x="55" y="410">Lorem ipsum dolorem</tspan>
				<tspan x="55" y="420">Lorem ipsum</tspan>
			</text>
			<path d="M55 440 L160 440" style="stroke: #fff;"/>
			<text style="stroke: none; fill: #fff; font-size: 8px" x="55" y="450">Lorem pirsum dolorem
														</text>
			<!-- call button -->
			<g>
				<rect height="15" rx="5" style="fill: #000;" width="55" x="55" y="460"/>
				<text style="stroke: none; fill: #fff; font-size: 10px" x="70" y="470">Click
																</text>
			</g>
			<!-- contact form -->
			<g>
				<rect height="120" style="stroke: #000; fill: #fff; stroke-width: 2" width="130" x="180" y="360"/>
				<!--form input labels -->
				<g>
					<text style="stroke: none; fill: #000; font-size: 6px">
						<tspan style="font-size: 10px;" x="205" y="375">Form title</tspan>
						<tspan x="185" y="395">Full name</tspan>
						<tspan x="185" y="410">Phone number</tspan>
						<tspan x="185" y="425">Email adress</tspan>
						<tspan x="185" y="440">Your country</tspan>
					</text>
					<!--form input fields -->
					<rect height="10" style="stroke: #000; fill: #fff; stroke-width: 0.1%" width="70" x="230" y="385"/>
					<rect height="10" style="stroke: #000; fill: #fff; stroke-width: 0.1%" width="70" x="230" y="402"/>
					<rect height="10" style="stroke: #000; fill: #fff; stroke-width: 0.1%" width="70" x="230" y="419"/>
					<rect height="10" style="stroke: #000; fill: #fff; stroke-width: 0.1%" width="70" x="230" y="436"/>
				</g>

				<!-- form submit button -->
				<g>
					<rect height="15" rx="5" style="fill: #000;" width="55" x="215" y="460"/>
					<text style="stroke: none; fill: #fff; font-size: 10px" x="230" y="470">Click
																			</text>
				</g>
			</g>
		</g>
	</g>
</svg>